<mxfile host="app.diagrams.net" modified="2024-07-17T13:18:46.242Z" agent="Mozilla/5.0 (Windows NT 10.0; Win64; x64) AppleWebKit/537.36 (KHTML, like Gecko) Chrome/126.0.0.0 Safari/537.36" version="24.7.1" etag="W4HgBV3Z328bz3nJfXbl" type="github">
  <diagram name="Sayfa -1" id="o420CQKQhEiZrl8aZRzk">
    <mxGraphModel>
      <root>
        <mxCell id="0" />
        <mxCell id="1" parent="0" />
      </root>
    </mxGraphModel>
  </diagram>
</mxfile>
